<svg width="47" height="30" viewBox="0 0 47 30" fill="none" xmlns="http://www.w3.org/2000/svg">
<path d="M46.7161 13.8594C42.2911 5.59297 33.5308 0 23.5 0C13.4692 0 4.70649 5.59688 0.283914 13.8602C0.0972536 14.2137 0 14.6043 0 15.0004C0 15.3965 0.0972536 15.7871 0.283914 16.1406C4.70894 24.407 13.4692 30 23.5 30C33.5308 30 42.2935 24.4031 46.7161 16.1398C46.9027 15.7863 47 15.3957 47 14.9996C47 14.6035 46.9027 14.2129 46.7161 13.8594ZM23.5 26.25C21.1761 26.25 18.9043 25.5902 16.972 24.354C15.0398 23.1179 13.5337 21.3609 12.6444 19.3052C11.7551 17.2495 11.5224 14.9875 11.9758 12.8052C12.4291 10.6229 13.5482 8.61839 15.1915 7.04505C16.8347 5.47171 18.9284 4.40025 21.2077 3.96617C23.487 3.53208 25.8495 3.75487 27.9965 4.60636C30.1436 5.45784 31.9787 6.89978 33.2698 8.74983C34.5609 10.5999 35.25 12.775 35.25 15C35.2508 16.4776 34.9474 17.9408 34.3571 19.306C33.7669 20.6713 32.9014 21.9118 31.8102 22.9566C30.719 24.0014 29.4233 24.83 27.9974 25.3951C26.5715 25.9602 25.0432 26.2507 23.5 26.25ZM23.5 7.5C22.8008 7.50935 22.1061 7.60894 21.4348 7.79609C21.9882 8.51615 22.2537 9.40226 22.1833 10.2937C22.1129 11.1852 21.7111 12.0229 21.0509 12.6551C20.3906 13.2872 19.5156 13.6719 18.5845 13.7393C17.6535 13.8068 16.728 13.5525 15.9759 13.0227C15.5477 14.5333 15.625 16.1344 16.1969 17.6008C16.7689 19.0671 17.8068 20.3248 19.1644 21.1968C20.5221 22.0689 22.1311 22.5113 23.7652 22.4619C25.3992 22.4125 26.9759 21.8737 28.2733 20.9213C29.5708 19.969 30.5237 18.6511 30.9978 17.1531C31.472 15.6551 31.4436 14.0525 30.9166 12.5708C30.3897 11.089 29.3906 9.80284 28.0602 8.89321C26.7297 7.98358 25.1348 7.49632 23.5 7.5Z" fill="#407BFF"/>
</svg>
