<svg width="45" height="47" viewBox="0 0 45 47" fill="none" xmlns="http://www.w3.org/2000/svg">
<path d="M22.5008 0.00010057C20.7044 0.00010057 19.0266 0.768416 17.5965 2.02654C16.1667 3.28497 14.9426 5.03754 13.9221 7.1604C13.7083 7.60512 13.504 8.06731 13.3088 8.54407C12.7822 8.46559 12.2534 8.40109 11.723 8.35063C11.106 8.29288 10.504 8.25703 9.91909 8.24417C8.16331 8.205 6.55861 8.37223 5.15216 8.77265C3.27704 9.30666 1.72977 10.2875 0.831557 11.7485C-0.066654 13.2098 -0.197108 14.9587 0.24804 16.7511C0.693403 18.5433 1.69715 20.4153 3.14445 22.3069C3.44813 22.7036 3.77255 23.1015 4.11494 23.4993C3.77998 23.8877 3.45678 24.2849 3.14573 24.6904C1.69833 26.5819 0.694579 28.4539 0.249324 30.2462C-0.195932 32.0385 -0.0653707 33.7875 0.83284 35.2485C1.73105 36.7098 3.27833 37.6905 5.15345 38.2243C7.02867 38.7584 9.25666 38.8779 11.7243 38.6464C12.2416 38.5977 12.7701 38.5329 13.3077 38.4533C13.4985 38.9207 13.7034 39.383 13.9221 39.8395C14.9426 41.9627 16.1666 43.7149 17.5965 44.9733C19.0265 46.2316 20.7045 47 22.5008 47C24.2971 47 25.9749 46.2315 27.4049 44.9733C28.8348 43.7148 30.0589 41.9626 31.0793 39.8395C31.298 39.3831 31.5029 38.9209 31.6938 38.4535C32.2308 38.5329 32.7588 38.5978 33.2757 38.6464C35.7434 38.8778 37.9715 38.7583 39.8465 38.2243C41.7218 37.6904 43.2691 36.7096 44.1673 35.2485C45.0655 33.7872 45.196 32.0384 44.7508 30.2462C44.3055 28.454 43.3016 26.582 41.8544 24.6904C41.5433 24.285 41.22 23.8877 40.8851 23.4993C41.2206 23.1106 41.5442 22.713 41.8556 22.307C43.3029 20.4154 44.3067 18.5434 44.7519 16.7512C45.1972 14.9588 45.0666 13.2099 44.1684 11.7486C43.2702 10.2876 41.7229 9.30676 39.8478 8.77275C38.4414 8.37233 36.8366 8.20511 35.0811 8.24417C34.4957 8.25703 33.8936 8.29288 33.2767 8.35063C32.7592 8.39924 32.2302 8.46442 31.6924 8.54397C31.5017 8.07746 31.2972 7.61609 31.0789 7.1604C30.0585 5.03724 28.8344 3.28467 27.4045 2.02644C25.9745 0.768215 24.2966 0 22.5003 0L22.5008 0.00010057ZM22.5008 1.8769C23.6989 1.8769 24.8738 2.37133 26.0387 3.39646C27.2034 4.42138 28.3159 5.97287 29.258 7.93273C29.4112 8.25249 29.5569 8.5754 29.6949 8.90121C27.4048 9.37947 24.9793 10.1132 22.5001 11.0937C20.0215 10.1134 17.5963 9.37987 15.3066 8.90161C15.448 8.56918 15.5932 8.24518 15.7436 7.93263C16.6856 5.97267 17.7981 4.42118 18.963 3.39605C20.1279 2.37113 21.3026 1.8767 22.501 1.8767L22.5008 1.8769ZM9.28532 10.1182C9.47822 10.1164 9.67419 10.1176 9.87322 10.1218C10.4036 10.1328 10.955 10.165 11.5245 10.2185C11.8887 10.2526 12.261 10.2963 12.6392 10.3479C11.9349 12.4496 11.3988 14.7892 11.0628 17.2958C8.91909 18.8224 7.02964 20.4287 5.44365 22.0527C5.21155 21.7769 4.98598 21.4964 4.76711 21.2112C3.43102 19.4651 2.55687 17.7844 2.19406 16.3243C1.83124 14.8642 1.96309 13.6615 2.56211 12.6869C3.16113 11.7123 4.20455 11.004 5.73194 10.569C6.7344 10.2835 7.93469 10.1296 9.28521 10.1181L9.28532 10.1182ZM35.715 10.1182C37.0655 10.1297 38.2658 10.2836 39.2682 10.5691C40.7958 11.004 41.8388 11.7123 42.438 12.6869C43.037 13.6615 43.1688 14.8643 42.8061 16.3243C42.4436 17.7843 41.5689 19.4651 40.2331 21.2112C40.0142 21.4964 39.7887 21.777 39.5567 22.0529C37.971 20.4292 36.082 18.8232 33.939 17.2968C33.6032 14.7898 33.0664 12.4499 32.3622 10.3479C32.74 10.2963 33.1117 10.2524 33.4756 10.2185C34.0246 10.1662 34.5755 10.1339 35.1271 10.1217C35.323 10.1175 35.519 10.1163 35.715 10.118V10.1182ZM30.377 10.6846C30.9085 12.2351 31.3485 13.9459 31.6769 15.7766C30.616 15.1035 29.5301 14.4658 28.4213 13.8648C27.3133 13.2636 26.1831 12.6994 25.0327 12.1732C26.8847 11.5249 28.6819 11.0276 30.377 10.6848V10.6846ZM14.6244 10.6849C16.3193 11.0278 18.1162 11.5251 19.9677 12.1733C18.8174 12.6996 17.6871 13.2638 16.5791 13.8648C15.4708 14.4656 14.3853 15.1029 13.3248 15.7755C13.6531 13.9453 14.093 12.235 14.6244 10.6849ZM22.5001 13.1415C24.1262 13.8152 25.7768 14.5982 27.4221 15.4904C29.0681 16.3831 30.6161 17.3344 32.0506 18.3207C32.2426 19.9805 32.3459 21.7151 32.3459 23.5C32.3459 25.2839 32.2429 27.0178 32.051 28.6769C30.6165 29.663 29.0687 30.6141 27.4233 31.5065C25.7776 32.3989 24.1266 33.1822 22.5002 33.8559C20.8736 33.1822 19.2226 32.3989 17.577 31.5065C15.9319 30.6144 14.3847 29.6636 12.9508 28.6779C12.7588 27.0185 12.6556 25.2843 12.6556 23.4999C12.6556 21.7147 12.7588 19.9799 12.951 18.3198C14.3852 17.3339 15.9327 16.3827 17.5782 15.4904C19.2236 14.5983 20.8742 13.8152 22.5001 13.1417V13.1415ZM22.6353 15.9653L16.9143 19.2813L22.6353 22.5976L28.3563 19.2813L22.6353 15.9652V15.9653ZM10.7917 19.8956C10.7018 21.0951 10.657 22.2972 10.6573 23.4997C10.6573 24.7248 10.7033 25.9274 10.7919 27.1016C9.26811 25.9195 7.91085 24.7063 6.74702 23.4988C7.91085 22.2914 9.268 21.078 10.7917 19.8956ZM34.2099 19.8967C35.7329 21.0788 37.0899 22.2917 38.2533 23.4989C37.0899 24.7061 35.7329 25.919 34.2099 27.1008C34.2997 25.9023 34.3445 24.7013 34.3442 23.4998C34.3442 22.2741 34.2982 21.0713 34.2098 19.8967H34.2099ZM15.6255 20.7397V27.2877L21.6339 30.7705V24.2227L15.6255 20.7397ZM29.6395 20.7431L23.6325 24.2251V30.7698L29.6396 27.2877L29.6395 20.7431ZM5.44344 24.9452C7.02964 26.5692 8.91887 28.1752 11.0624 29.7018C11.3981 32.2081 11.9345 34.5475 12.6385 36.6492C12.2611 36.7005 11.8894 36.7443 11.5258 36.7785C9.24779 36.9921 7.26071 36.8629 5.73322 36.428C4.20562 35.9931 3.16263 35.2844 2.5635 34.3098C1.96448 33.3351 1.83263 32.1324 2.19534 30.6725C2.55805 29.2125 3.4323 27.5317 4.76839 25.7856C4.98679 25.5008 5.21179 25.2206 5.44344 24.9452ZM39.5566 24.9455C39.7926 25.2268 40.0186 25.507 40.2317 25.7856C41.5677 27.5316 42.4419 29.2123 42.8046 30.6723C43.1673 32.1323 43.0358 33.335 42.4368 34.3097C41.8375 35.2843 40.7943 35.993 39.2667 36.4279C37.7393 36.8628 35.7526 36.992 33.4746 36.7784C33.1031 36.743 32.7325 36.7 32.363 36.6493C33.0672 34.5471 33.6034 32.2072 33.9392 29.7004C36.082 28.1742 37.9711 26.5686 39.5567 24.9453L39.5566 24.9455ZM31.6773 31.2209C31.349 33.0514 30.9091 34.7622 30.3777 36.3126C28.6824 35.9698 26.885 35.4722 25.0329 34.824C26.1836 34.2975 27.3142 33.7331 28.4226 33.1319C29.5311 32.531 30.6168 31.8936 31.6775 31.2209H31.6773ZM13.3244 31.2219C14.3845 31.8943 15.4696 32.5314 16.5776 33.1319C17.686 33.7331 18.8166 34.2975 19.9673 34.824C18.1157 35.4721 16.3188 35.9696 14.6237 36.3124C14.0922 34.7623 13.6527 33.0519 13.3244 31.2219ZM22.5599 31.3073L22.6326 31.3495L22.705 31.3073H22.56H22.5599ZM22.5 35.9038C24.9797 36.8841 27.4053 37.6177 29.6958 38.0959C29.5575 38.4226 29.4115 38.7464 29.258 39.0671C28.3159 41.0268 27.2034 42.5782 26.0386 43.6033C24.8738 44.6284 23.6989 45.1229 22.5008 45.1229C21.3026 45.1229 20.1277 44.6284 18.9629 43.6033C17.7981 42.5783 16.6856 41.0268 15.7436 39.067C15.59 38.7463 15.4441 38.4225 15.3057 38.0958C17.5957 37.6175 20.0211 36.884 22.5002 35.9038H22.5Z" fill="#407BFF"/>
</svg>
