<svg width="41" height="50" viewBox="0 0 41 50" fill="none" xmlns="http://www.w3.org/2000/svg">
<path d="M14.4428 8.66087C15.6744 4.26513 20.6545 4.132 22.1148 8.26148L22.2384 8.66338L23.9005 14.5914C24.2814 15.9508 24.8969 17.1949 25.7056 18.2396C26.5142 19.2843 27.4972 20.1054 28.5881 20.6474L29.0351 20.8509L33.8958 22.8754C37.5001 24.3775 37.6092 30.4512 34.2253 32.2321L33.8958 32.3828L29.0351 34.4099C27.92 34.8741 26.8995 35.6247 26.0425 36.6109C25.1855 37.5971 24.512 38.7961 24.0673 40.1268L23.9005 40.6694L22.2404 46.5999C21.0088 50.9956 16.0287 51.1288 14.5704 47.0018L14.4428 46.5999L12.7827 40.6719C12.4021 39.312 11.7866 38.0674 10.978 37.0222C10.1693 35.9771 9.18621 35.1556 8.09504 34.6133L7.65016 34.4099L2.78949 32.3853C-0.816887 30.8832 -0.926046 24.8096 2.45995 23.0312L2.78949 22.8754L7.65016 20.8509C8.76489 20.3863 9.78497 19.6356 10.6416 18.6494C11.4982 17.6632 12.1714 16.4644 12.6159 15.1339L12.7827 14.5914L14.4428 8.66087ZM34.8185 4.5386e-07C35.2038 -5.92727e-07 35.5814 0.131818 35.9083 0.380474C36.2353 0.629131 36.4985 0.984653 36.668 1.40664L36.7669 1.70052L37.4877 4.27769L39.6029 5.15683C39.9891 5.31683 40.3276 5.61302 40.5755 6.00789C40.8235 6.40275 40.9698 6.8785 40.9958 7.37485C41.0218 7.8712 40.9264 8.3658 40.7218 8.79597C40.5171 9.22614 40.2122 9.57252 39.846 9.7912L39.6029 9.91177L37.4898 10.7909L36.7689 13.3706C36.6375 13.8414 36.3944 14.254 36.0705 14.5562C35.7467 14.8583 35.3565 15.0364 34.9495 15.0679C34.5426 15.0994 34.1371 14.9828 33.7845 14.733C33.4319 14.4831 33.1481 14.1113 32.9689 13.6645L32.8701 13.3706L32.1492 10.7934L30.034 9.91428C29.6479 9.75429 29.3093 9.45809 29.0614 9.06323C28.8134 8.66837 28.6672 8.19261 28.6411 7.69626C28.6151 7.19992 28.7105 6.70531 28.9152 6.27514C29.1199 5.84497 29.4247 5.4986 29.791 5.27992L30.034 5.15935L32.1471 4.2802L32.868 1.70052C33.0069 1.20425 33.2696 0.773421 33.6194 0.468458C33.9692 0.163494 34.3885 -0.000314688 34.8185 4.5386e-07Z" fill="#407BFF"/>
</svg>
