<svg width="67" height="61" viewBox="0 0 67 61" fill="none" xmlns="http://www.w3.org/2000/svg">
<path d="M27.1568 24.1315C26.6502 24.9806 26.0666 25.7494 25.4058 26.4379C24.7451 27.1264 23.9962 27.746 23.1593 28.2968L24.8442 32.5655L20.9458 34.2178L19.2608 29.9836C18.3798 30.2131 17.4328 30.3279 16.4196 30.3279C15.4065 30.3279 14.4594 30.2131 13.5784 29.9836L11.8935 34.2178L7.99507 32.5655L9.67998 28.2968C8.86506 27.769 8.12722 27.1608 7.46647 26.4723C6.80572 25.7839 6.21105 25.0036 5.68245 24.1315L1.5858 25.8871L0 21.8251L4.06361 20.0694C3.84336 19.1514 3.73323 18.1646 3.73323 17.1089C3.73323 16.0532 3.84336 15.0664 4.06361 14.1484L0 12.3928L1.5858 8.3307L5.68245 10.0863C6.69559 8.36512 8.02811 6.97667 9.67998 5.92099L7.99507 1.65237L11.8935 0L13.5784 4.2342C14.4594 4.0047 15.4065 3.88995 16.4196 3.88995C17.4328 3.88995 18.3798 4.0047 19.2608 4.2342L20.9458 0L24.8442 1.65237L23.1593 5.92099C24.8111 6.97667 26.1437 8.36512 27.1568 10.0863L31.2535 8.3307L32.8393 12.3928L28.7756 14.1484C28.9959 15.0664 29.106 16.0532 29.106 17.1089C29.106 18.1646 28.9959 19.1514 28.7756 20.0694L32.8393 21.8251L31.2535 25.8871L27.1568 24.1315ZM16.4196 25.9216C17.5869 25.9216 18.6772 25.6921 19.6903 25.2331C20.7035 24.7741 21.6065 24.143 22.3994 23.3397C23.1923 22.5365 23.798 21.607 24.2165 20.5514C24.6349 19.4957 24.8552 18.3482 24.8772 17.1089C24.8772 15.8926 24.657 14.7566 24.2165 13.7009C23.776 12.6452 23.1703 11.7043 22.3994 10.8781C21.6285 10.0519 20.7365 9.42081 19.7234 8.98476C18.7102 8.54872 17.609 8.31922 16.4196 8.29628C15.2523 8.29628 14.1621 8.52577 13.1489 8.98476C12.1358 9.44375 11.2327 10.0749 10.4398 10.8781C9.64694 11.6813 9.04126 12.6108 8.62278 13.6665C8.20431 14.7222 7.98406 15.8696 7.96203 17.1089C7.96203 18.3252 8.18228 19.4612 8.62278 20.5169C9.06328 21.5726 9.66897 22.5135 10.4398 23.3397C11.2107 24.1659 12.1027 24.797 13.1159 25.2331C14.129 25.6691 15.2303 25.8986 16.4196 25.9216ZM62.9364 41.3437C62.9364 42.6059 62.7822 43.8796 62.4739 45.1648L67 47.0926L65.4142 51.1891L60.855 49.2269C59.5556 51.4759 57.8376 53.266 55.7012 54.5971L57.5843 59.3132L53.6529 61L51.8028 56.2839C50.5694 56.6052 49.347 56.7658 48.1356 56.7658C46.9242 56.7658 45.7018 56.6052 44.4684 56.2839L42.6183 61L38.6869 59.3132L40.57 54.5971C38.4116 53.266 36.6936 51.4759 35.4162 49.2269L30.857 51.1891L29.2712 47.0926L33.7973 45.1648C33.489 43.8796 33.3348 42.6059 33.3348 41.3437C33.3348 40.0815 33.489 38.8077 33.7973 37.5226L29.2712 35.5948L30.857 31.4983L35.4162 33.4605C36.6936 31.2344 38.4116 29.4443 40.57 28.0903L38.6869 23.3397L42.6183 21.6874L44.4684 26.4035C45.7018 26.0822 46.9242 25.9216 48.1356 25.9216C49.347 25.9216 50.5694 26.0822 51.8028 26.4035L53.6529 21.6874L57.5843 23.3397L55.7012 28.0903C57.8376 29.4443 59.5556 31.2344 60.855 33.4605L65.4142 31.4983L67 35.5948L62.4739 37.5226C62.7822 38.8077 62.9364 40.0815 62.9364 41.3437ZM48.1356 52.3595C49.5892 52.3595 50.9548 52.0726 52.2322 51.4989C53.5097 50.9251 54.622 50.1448 55.569 49.158C56.5161 48.1712 57.276 47.0008 57.8486 45.6467C58.4213 44.2927 58.7076 42.8584 58.7076 41.3437C58.7076 39.829 58.4323 38.4061 57.8817 37.0751C57.331 35.744 56.5712 34.585 55.6021 33.5982C54.633 32.6114 53.5097 31.8196 52.2322 31.2229C50.9548 30.6262 49.5892 30.3279 48.1356 30.3279C46.682 30.3279 45.3164 30.6147 44.039 31.1885C42.7615 31.7622 41.6382 32.554 40.6691 33.5638C39.7 34.5736 38.9402 35.744 38.3895 37.0751C37.8389 38.4061 37.5636 39.829 37.5636 41.3437C37.5636 42.8584 37.8389 44.2812 38.3895 45.6123C38.9402 46.9434 39.689 48.1138 40.6361 49.1236C41.5832 50.1334 42.7064 50.9251 44.0059 51.4989C45.3054 52.0726 46.682 52.3595 48.1356 52.3595Z" fill="#407BFF"/>
</svg>
